<?xml version="1.0" standalone="no"?>
<!DOCTYPE svg PUBLIC "-//W3C//DTD SVG 20010904//EN"
 "http://www.w3.org/TR/2001/REC-SVG-20010904/DTD/svg10.dtd">
<svg version="1.0" xmlns="http://www.w3.org/2000/svg"
 width="700.000000pt" height="700.000000pt" viewBox="0 0 700.000000 700.000000"
 preserveAspectRatio="xMidYMid meet">
<metadata>
Created by potrace 1.14, written by Peter Selinger 2001-2017
</metadata>
<g transform="translate(0.000000,700.000000) scale(0.100000,-0.100000)"
fill="#000000" stroke="none">
<path d="M0 5648 l0 -1353 1350 1350 c742 742 1350 1351 1350 1352 0 2 -607 3
-1350 3 l-1350 0 0 -1352z"/>
<path d="M1753 5252 c-959 -960 -1743 -1749 -1743 -1754 0 -4 786 -794 1746
-1754 l1746 -1746 1751 1750 1750 1750 -1751 1751 c-963 963 -1753 1750 -1754
1750 -2 -1 -787 -787 -1745 -1747z"/>
<path d="M5645 5650 c742 -742 1351 -1350 1352 -1350 2 0 3 608 3 1350 l0
1350 -1352 0 -1353 0 1350 -1350z"/>
<path d="M0 1365 l0 -1365 1367 0 1368 0 -1365 1365 c-751 751 -1366 1365
-1367 1365 -2 0 -3 -614 -3 -1365z"/>
<path d="M5630 1365 l-1364 -1365 1367 0 1367 0 0 1365 c0 751 -1 1365 -2
1365 -2 0 -617 -614 -1368 -1365z"/>
</g>
</svg>
